# Blender v2.92.0 OBJ File: ''
# www.blender.org
mtllib bucket.mtl
o Cylinder
v -0.000000 -1.000000 -1.163220
v -0.000000 1.000000 -1.395833
v 0.226933 -1.000000 -1.140869
v 0.272314 1.000000 -1.369012
v 0.445145 -1.000000 -1.074675
v 0.534162 1.000000 -1.289581
v 0.646250 -1.000000 -0.967182
v 0.775483 1.000000 -1.160593
v 0.822521 -1.000000 -0.822521
v 0.987003 1.000000 -0.987003
v 0.967182 -1.000000 -0.646250
v 1.160593 1.000000 -0.775483
v 1.074675 -1.000000 -0.445145
v 1.289582 1.000000 -0.534162
v 1.140869 -1.000000 -0.226933
v 1.369012 1.000000 -0.272313
v 1.163220 -1.000000 -0.000000
v 1.395833 1.000000 0.000000
v 1.140869 -1.000000 0.226933
v 1.369013 1.000000 0.272313
v 1.074675 -1.000000 0.445145
v 1.289582 1.000000 0.534162
v 0.967182 -1.000000 0.646250
v 1.160593 1.000000 0.775483
v 0.822521 -1.000000 0.822521
v 0.987003 1.000000 0.987003
v 0.646250 -1.000000 0.967182
v 0.775483 1.000000 1.160593
v 0.445145 -1.000000 1.074675
v 0.534162 1.000000 1.289582
v 0.226933 -1.000000 1.140869
v 0.272313 1.000000 1.369013
v -0.000000 -1.000000 1.163220
v -0.000001 1.000000 1.395833
v -0.226933 -1.000000 1.140869
v -0.272314 1.000000 1.369013
v -0.445146 -1.000000 1.074675
v -0.534163 1.000000 1.289582
v -0.646251 -1.000000 0.967182
v -0.775484 1.000000 1.160593
v -0.822521 -1.000000 0.822520
v -0.987004 1.000000 0.987003
v -0.967183 -1.000000 0.646250
v -1.160593 1.000000 0.775483
v -1.074676 -1.000000 0.445144
v -1.289582 1.000000 0.534161
v -1.140869 -1.000000 0.226932
v -1.369013 1.000000 0.272312
v -1.163220 -1.000000 -0.000001
v -1.395833 1.000000 -0.000001
v -1.140869 -1.000000 -0.226934
v -1.369012 1.000000 -0.272315
v -1.074675 -1.000000 -0.445146
v -1.289581 1.000000 -0.534164
v -0.967181 -1.000000 -0.646252
v -1.160592 1.000000 -0.775485
v -0.822520 -1.000000 -0.822522
v -0.987002 1.000000 -0.987004
v -0.646249 -1.000000 -0.967183
v -0.775482 1.000000 -1.160594
v -0.445143 -1.000000 -1.074676
v -0.534160 1.000000 -1.289582
v -0.226931 -1.000000 -1.140869
v -0.272311 1.000000 -1.369013
v -0.000000 0.976828 -1.577132
v 0.307683 0.976828 -1.546828
v 0.603542 0.976828 -1.457080
v 0.876208 0.976828 -1.311337
v 1.115201 0.976828 -1.115201
v 1.311337 0.976828 -0.876207
v 1.457080 0.976828 -0.603542
v 1.546828 0.976828 -0.307683
v 1.577132 0.976828 0.000000
v 1.546828 0.976828 0.307683
v 1.457080 0.976828 0.603542
v 1.311337 0.976828 0.876208
v 1.115201 0.976828 1.115201
v 0.876207 0.976828 1.311338
v 0.603542 0.976828 1.457080
v 0.307683 0.976828 1.546828
v -0.000001 0.976828 1.577132
v -0.307684 0.976828 1.546828
v -0.603543 0.976828 1.457080
v -0.876208 0.976828 1.311337
v -1.115201 0.976828 1.115200
v -1.311338 0.976828 0.876207
v -1.457081 0.976828 0.603541
v -1.546828 0.976828 0.307682
v -1.577132 0.976828 -0.000001
v -1.546828 0.976828 -0.307685
v -1.457079 0.976828 -0.603544
v -1.311336 0.976828 -0.876209
v -1.115199 0.976828 -1.115202
v -0.876206 0.976828 -1.311338
v -0.603540 0.976828 -1.457081
v -0.307681 0.976828 -1.546828
v -0.000000 1.379971 -1.577132
v 0.307683 1.379971 -1.546828
v 0.603542 1.379971 -1.457080
v 0.876208 1.379971 -1.311337
v 1.115201 1.379971 -1.115201
v 1.311337 1.379971 -0.876207
v 1.457080 1.379971 -0.603542
v 1.546828 1.379971 -0.307683
v 1.577132 1.379971 0.000000
v 1.546828 1.379971 0.307683
v 1.457080 1.379971 0.603542
v 1.311337 1.379971 0.876208
v 1.115201 1.379971 1.115201
v 0.876207 1.379971 1.311338
v 0.603542 1.379971 1.457080
v 0.307683 1.379971 1.546828
v -0.000001 1.379971 1.577132
v -0.307684 1.379971 1.546828
v -0.603543 1.379971 1.457080
v -0.876208 1.379971 1.311337
v -1.115201 1.379971 1.115200
v -1.311338 1.379971 0.876207
v -1.457081 1.379971 0.603541
v -1.546828 1.379971 0.307682
v -1.577132 1.379971 -0.000001
v -1.546828 1.379971 -0.307685
v -1.457079 1.379971 -0.603544
v -1.311336 1.379971 -0.876209
v -1.115199 1.379971 -1.115202
v -0.876206 1.379971 -1.311338
v -0.603540 1.379971 -1.457081
v -0.307681 1.379971 -1.546828
vt 1.000000 0.500000
vt 1.000000 1.000000
vt 0.968750 1.000000
vt 0.968750 0.500000
vt 0.937500 1.000000
vt 0.937500 0.500000
vt 0.906250 1.000000
vt 0.906250 0.500000
vt 0.875000 1.000000
vt 0.875000 0.500000
vt 0.843750 1.000000
vt 0.843750 0.500000
vt 0.812500 1.000000
vt 0.812500 0.500000
vt 0.781250 1.000000
vt 0.781250 0.500000
vt 0.750000 1.000000
vt 0.750000 0.500000
vt 0.718750 1.000000
vt 0.718750 0.500000
vt 0.687500 1.000000
vt 0.687500 0.500000
vt 0.656250 1.000000
vt 0.656250 0.500000
vt 0.625000 1.000000
vt 0.625000 0.500000
vt 0.593750 1.000000
vt 0.593750 0.500000
vt 0.562500 1.000000
vt 0.562500 0.500000
vt 0.531250 1.000000
vt 0.531250 0.500000
vt 0.500000 1.000000
vt 0.500000 0.500000
vt 0.468750 1.000000
vt 0.468750 0.500000
vt 0.437500 1.000000
vt 0.437500 0.500000
vt 0.406250 1.000000
vt 0.406250 0.500000
vt 0.375000 1.000000
vt 0.375000 0.500000
vt 0.343750 1.000000
vt 0.343750 0.500000
vt 0.312500 1.000000
vt 0.312500 0.500000
vt 0.281250 1.000000
vt 0.281250 0.500000
vt 0.250000 1.000000
vt 0.250000 0.500000
vt 0.218750 1.000000
vt 0.218750 0.500000
vt 0.187500 1.000000
vt 0.187500 0.500000
vt 0.156250 1.000000
vt 0.156250 0.500000
vt 0.125000 1.000000
vt 0.125000 0.500000
vt 0.093750 1.000000
vt 0.093750 0.500000
vt 0.062500 1.000000
vt 0.062500 0.500000
vt 0.031250 1.000000
vt 0.031250 0.500000
vt 0.000000 1.000000
vt 0.000000 0.500000
vt 0.750000 0.490000
vt 0.796822 0.485388
vt 0.841844 0.471731
vt 0.883337 0.449553
vt 0.919706 0.419706
vt 0.949553 0.383337
vt 0.971731 0.341844
vt 0.985388 0.296822
vt 0.990000 0.250000
vt 0.985388 0.203178
vt 0.971731 0.158156
vt 0.949553 0.116663
vt 0.919706 0.080294
vt 0.883337 0.050447
vt 0.841844 0.028269
vt 0.796822 0.014612
vt 0.750000 0.010000
vt 0.703178 0.014612
vt 0.658156 0.028269
vt 0.616663 0.050447
vt 0.580294 0.080294
vt 0.550447 0.116663
vt 0.528269 0.158156
vt 0.514611 0.203179
vt 0.510000 0.250000
vt 0.514612 0.296822
vt 0.528269 0.341844
vt 0.550447 0.383337
vt 0.580295 0.419706
vt 0.616663 0.449553
vt 0.658156 0.471731
vt 0.703179 0.485389
vt 0.531250 1.000000
vt 0.500000 1.000000
vt 0.812500 1.000000
vt 0.781250 1.000000
vt 0.125000 1.000000
vt 0.093750 1.000000
vt 0.406250 1.000000
vt 0.375000 1.000000
vt 0.687500 1.000000
vt 0.656250 1.000000
vt 0.968750 1.000000
vt 0.937500 1.000000
vt 0.281250 1.000000
vt 0.250000 1.000000
vt 0.562500 1.000000
vt 0.843750 1.000000
vt 0.156250 1.000000
vt 0.437500 1.000000
vt 0.718750 1.000000
vt 0.031250 1.000000
vt 0.000000 1.000000
vt 1.000000 1.000000
vt 0.312500 1.000000
vt 0.593750 1.000000
vt 0.875000 1.000000
vt 0.187500 1.000000
vt 0.468750 1.000000
vt 0.750000 1.000000
vt 0.062500 1.000000
vt 0.343750 1.000000
vt 0.625000 1.000000
vt 0.906250 1.000000
vt 0.218750 1.000000
vt 0.250000 1.000000
vt 0.218750 1.000000
vt 0.296822 0.485388
vt 0.250000 0.490000
vt 0.203179 0.485389
vt 0.158156 0.471731
vt 0.116663 0.449553
vt 0.080295 0.419706
vt 0.050447 0.383337
vt 0.028269 0.341844
vt 0.014612 0.296822
vt 0.010000 0.250000
vt 0.014611 0.203179
vt 0.028269 0.158156
vt 0.050447 0.116663
vt 0.080294 0.080294
vt 0.116663 0.050447
vt 0.158156 0.028269
vt 0.203178 0.014612
vt 0.250000 0.010000
vt 0.296822 0.014612
vt 0.341844 0.028269
vt 0.383337 0.050447
vt 0.419706 0.080294
vt 0.449553 0.116663
vt 0.471731 0.158156
vt 0.485388 0.203178
vt 0.490000 0.250000
vt 0.485388 0.296822
vt 0.471731 0.341844
vt 0.449553 0.383337
vt 0.419706 0.419706
vt 0.383337 0.449553
vt 0.341844 0.471731
vt 0.937500 1.000000
vt 0.906250 1.000000
vt 0.656250 1.000000
vt 0.625000 1.000000
vt 0.375000 1.000000
vt 0.343750 1.000000
vt 0.093750 1.000000
vt 0.062500 1.000000
vt 0.781250 1.000000
vt 0.750000 1.000000
vt 0.500000 1.000000
vt 0.468750 1.000000
vt 0.187500 1.000000
vt 0.875000 1.000000
vt 0.593750 1.000000
vt 0.312500 1.000000
vt 0.031250 1.000000
vt 0.718750 1.000000
vt 0.437500 1.000000
vt 0.156250 1.000000
vt 0.843750 1.000000
vt 0.562500 1.000000
vt 0.281250 1.000000
vt 1.000000 1.000000
vt 0.968750 1.000000
vt 0.000000 1.000000
vt 0.687500 1.000000
vt 0.406250 1.000000
vt 0.125000 1.000000
vt 0.812500 1.000000
vt 0.531250 1.000000
vn 0.0974 -0.1150 -0.9886
vn 0.2884 -0.1150 -0.9506
vn 0.4683 -0.1150 -0.8761
vn 0.6302 -0.1150 -0.7679
vn 0.7679 -0.1150 -0.6302
vn 0.8761 -0.1150 -0.4683
vn 0.9506 -0.1150 -0.2884
vn 0.9886 -0.1150 -0.0974
vn 0.9886 -0.1150 0.0974
vn 0.9506 -0.1150 0.2884
vn 0.8761 -0.1150 0.4683
vn 0.7679 -0.1150 0.6302
vn 0.6302 -0.1150 0.7679
vn 0.4683 -0.1150 0.8761
vn 0.2884 -0.1150 0.9506
vn 0.0974 -0.1150 0.9886
vn -0.0974 -0.1150 0.9886
vn -0.2884 -0.1150 0.9506
vn -0.4683 -0.1150 0.8761
vn -0.6302 -0.1150 0.7679
vn -0.7679 -0.1150 0.6302
vn -0.8761 -0.1150 0.4683
vn -0.9506 -0.1150 0.2884
vn -0.9886 -0.1150 0.0974
vn -0.9886 -0.1150 -0.0974
vn -0.9506 -0.1150 -0.2884
vn -0.8761 -0.1150 -0.4683
vn -0.7679 -0.1150 -0.6302
vn -0.6302 -0.1150 -0.7679
vn -0.4683 -0.1150 -0.8761
vn -0.2884 -0.1150 -0.9506
vn -0.0974 -0.1150 -0.9886
vn 0.0000 -1.0000 0.0000
vn -0.0125 -0.9919 -0.1268
vn -0.1219 -0.9919 0.0370
vn 0.0808 -0.9919 0.0985
vn 0.0808 -0.9919 -0.0985
vn -0.1123 -0.9919 -0.0600
vn -0.0370 -0.9919 0.1219
vn 0.1268 -0.9919 -0.0125
vn -0.0370 -0.9919 -0.1219
vn -0.1123 -0.9919 0.0600
vn 0.0985 -0.9919 0.0808
vn 0.0600 -0.9919 -0.1123
vn -0.1219 -0.9919 -0.0370
vn 0.0125 -0.9919 0.1268
vn -0.0125 -0.9919 0.1268
vn 0.1219 -0.9919 -0.0370
vn -0.0600 -0.9919 -0.1123
vn -0.0985 -0.9919 0.0808
vn 0.1123 -0.9919 0.0600
vn 0.0370 -0.9919 -0.1219
vn -0.1268 -0.9919 -0.0125
vn 0.0370 -0.9919 0.1219
vn 0.1123 -0.9919 -0.0600
vn -0.0808 -0.9919 -0.0985
vn -0.0808 -0.9919 0.0985
vn 0.1219 -0.9919 0.0370
vn 0.0125 -0.9919 -0.1268
vn -0.1268 -0.9919 0.0125
vn 0.0600 -0.9919 0.1123
vn 0.0985 -0.9919 -0.0808
vn -0.0985 -0.9919 -0.0808
vn -0.0600 -0.9919 0.1123
vn 0.1268 -0.9919 0.0125
vn -0.9952 0.0000 -0.0980
vn 0.0000 1.0000 -0.0000
vn 0.4714 0.0000 -0.8819
vn 0.7730 0.0000 0.6344
vn -0.7730 0.0000 0.6344
vn -0.4714 0.0000 -0.8819
vn 0.9952 0.0000 -0.0980
vn -0.0980 -0.0000 0.9952
vn -0.9569 0.0000 -0.2903
vn 0.6344 0.0000 -0.7730
vn 0.6344 0.0000 0.7730
vn -0.8819 0.0000 0.4714
vn -0.2903 0.0000 -0.9569
vn 0.9952 0.0000 0.0980
vn -0.2903 0.0000 0.9569
vn -0.8819 0.0000 -0.4714
vn 0.7730 0.0000 -0.6344
vn 0.4714 0.0000 0.8819
vn -0.9569 0.0000 0.2903
vn 0.0980 0.0000 -0.9952
vn -0.0980 -0.0000 -0.9952
vn 0.9569 0.0000 0.2903
vn -0.4714 0.0000 0.8819
vn -0.7730 0.0000 -0.6344
vn 0.8819 0.0000 -0.4714
vn 0.2903 0.0000 0.9569
vn -0.9952 0.0000 0.0980
vn 0.2903 0.0000 -0.9569
vn 0.8819 0.0000 0.4714
vn -0.6344 0.0000 0.7730
vn -0.6344 0.0000 -0.7730
vn 0.9569 0.0000 -0.2903
vn 0.0980 0.0000 0.9952
usemtl None
s off
f 1/1/1 2/2/1 4/3/1 3/4/1
f 3/4/2 4/3/2 6/5/2 5/6/2
f 5/6/3 6/5/3 8/7/3 7/8/3
f 7/8/4 8/7/4 10/9/4 9/10/4
f 9/10/5 10/9/5 12/11/5 11/12/5
f 11/12/6 12/11/6 14/13/6 13/14/6
f 13/14/7 14/13/7 16/15/7 15/16/7
f 15/16/8 16/15/8 18/17/8 17/18/8
f 17/18/9 18/17/9 20/19/9 19/20/9
f 19/20/10 20/19/10 22/21/10 21/22/10
f 21/22/11 22/21/11 24/23/11 23/24/11
f 23/24/12 24/23/12 26/25/12 25/26/12
f 25/26/13 26/25/13 28/27/13 27/28/13
f 27/28/14 28/27/14 30/29/14 29/30/14
f 29/30/15 30/29/15 32/31/15 31/32/15
f 31/32/16 32/31/16 34/33/16 33/34/16
f 33/34/17 34/33/17 36/35/17 35/36/17
f 35/36/18 36/35/18 38/37/18 37/38/18
f 37/38/19 38/37/19 40/39/19 39/40/19
f 39/40/20 40/39/20 42/41/20 41/42/20
f 41/42/21 42/41/21 44/43/21 43/44/21
f 43/44/22 44/43/22 46/45/22 45/46/22
f 45/46/23 46/45/23 48/47/23 47/48/23
f 47/48/24 48/47/24 50/49/24 49/50/24
f 49/50/25 50/49/25 52/51/25 51/52/25
f 51/52/26 52/51/26 54/53/26 53/54/26
f 53/54/27 54/53/27 56/55/27 55/56/27
f 55/56/28 56/55/28 58/57/28 57/58/28
f 57/58/29 58/57/29 60/59/29 59/60/29
f 59/60/30 60/59/30 62/61/30 61/62/30
f 61/62/31 62/61/31 64/63/31 63/64/31
f 63/64/32 64/63/32 2/65/32 1/66/32
f 1/67/33 3/68/33 5/69/33 7/70/33 9/71/33 11/72/33 13/73/33 15/74/33 17/75/33 19/76/33 21/77/33 23/78/33 25/79/33 27/80/33 29/81/33 31/82/33 33/83/33 35/84/33 37/85/33 39/86/33 41/87/33 43/88/33 45/89/33 47/90/33 49/91/33 51/92/33 53/93/33 55/94/33 57/95/33 59/96/33 61/97/33 63/98/33
f 34/33/34 32/31/34 80/99/34 81/100/34
f 16/15/35 14/13/35 71/101/35 72/102/35
f 60/59/36 58/57/36 93/103/36 94/104/36
f 42/41/37 40/39/37 84/105/37 85/106/37
f 24/23/38 22/21/38 75/107/38 76/108/38
f 6/5/39 4/3/39 66/109/39 67/110/39
f 50/49/40 48/47/40 88/111/40 89/112/40
f 32/31/41 30/29/41 79/113/41 80/99/41
f 14/13/42 12/11/42 70/114/42 71/101/42
f 58/57/43 56/55/43 92/115/43 93/103/43
f 40/39/44 38/37/44 83/116/44 84/105/44
f 22/21/45 20/19/45 74/117/45 75/107/45
f 2/65/46 64/63/46 96/118/46 65/119/46
f 4/3/47 2/2/47 65/120/47 66/109/47
f 48/47/48 46/45/48 87/121/48 88/111/48
f 30/29/49 28/27/49 78/122/49 79/113/49
f 12/11/50 10/9/50 69/123/50 70/114/50
f 56/55/51 54/53/51 91/124/51 92/115/51
f 38/37/52 36/35/52 82/125/52 83/116/52
f 20/19/53 18/17/53 73/126/53 74/117/53
f 64/63/54 62/61/54 95/127/54 96/118/54
f 46/45/55 44/43/55 86/128/55 87/121/55
f 28/27/56 26/25/56 77/129/56 78/122/56
f 10/9/57 8/7/57 68/130/57 69/123/57
f 54/53/58 52/51/58 90/131/58 91/124/58
f 36/35/59 34/33/59 81/100/59 82/125/59
f 18/17/60 16/15/60 72/102/60 73/126/60
f 62/61/61 60/59/61 94/104/61 95/127/61
f 44/43/62 42/41/62 85/106/62 86/128/62
f 26/25/63 24/23/63 76/108/63 77/129/63
f 8/7/64 6/5/64 67/110/64 68/130/64
f 52/51/65 50/49/65 89/112/65 90/131/65
f 90/131/66 89/112/66 121/132/66 122/133/66
f 98/134/67 97/135/67 128/136/67 127/137/67 126/138/67 125/139/67 124/140/67 123/141/67 122/142/67 121/143/67 120/144/67 119/145/67 118/146/67 117/147/67 116/148/67 115/149/67 114/150/67 113/151/67 112/152/67 111/153/67 110/154/67 109/155/67 108/156/67 107/157/67 106/158/67 105/159/67 104/160/67 103/161/67 102/162/67 101/163/67 100/164/67 99/165/67
f 68/130/68 67/110/68 99/166/68 100/167/68
f 77/129/69 76/108/69 108/168/69 109/169/69
f 86/128/70 85/106/70 117/170/70 118/171/70
f 95/127/71 94/104/71 126/172/71 127/173/71
f 73/126/72 72/102/72 104/174/72 105/175/72
f 82/125/73 81/100/73 113/176/73 114/177/73
f 91/124/74 90/131/74 122/133/74 123/178/74
f 69/123/75 68/130/75 100/167/75 101/179/75
f 78/122/76 77/129/76 109/169/76 110/180/76
f 87/121/77 86/128/77 118/171/77 119/181/77
f 96/118/78 95/127/78 127/173/78 128/182/78
f 74/117/79 73/126/79 105/175/79 106/183/79
f 83/116/80 82/125/80 114/177/80 115/184/80
f 92/115/81 91/124/81 123/178/81 124/185/81
f 70/114/82 69/123/82 101/179/82 102/186/82
f 79/113/83 78/122/83 110/180/83 111/187/83
f 88/111/84 87/121/84 119/181/84 120/188/84
f 66/109/85 65/120/85 97/189/85 98/190/85
f 65/119/86 96/118/86 128/182/86 97/191/86
f 75/107/87 74/117/87 106/183/87 107/192/87
f 84/105/88 83/116/88 115/184/88 116/193/88
f 93/103/89 92/115/89 124/185/89 125/194/89
f 71/101/90 70/114/90 102/186/90 103/195/90
f 80/99/91 79/113/91 111/187/91 112/196/91
f 89/112/92 88/111/92 120/188/92 121/132/92
f 67/110/93 66/109/93 98/190/93 99/166/93
f 76/108/94 75/107/94 107/192/94 108/168/94
f 85/106/95 84/105/95 116/193/95 117/170/95
f 94/104/96 93/103/96 125/194/96 126/172/96
f 72/102/97 71/101/97 103/195/97 104/174/97
f 81/100/98 80/99/98 112/196/98 113/176/98
