# Blender v2.92.0 OBJ File: ''
# www.blender.org
mtllib post.mtl
o Cube
v 0.388322 3.232954 -0.388322
v 0.388322 -3.232954 -0.388322
v 0.388322 3.232954 0.388322
v 0.259090 -2.889022 0.248913
v -0.388322 2.993112 -0.388322
v -0.434076 -3.072053 -0.386500
v -0.388322 2.811511 0.388322
v -0.388322 -3.232954 0.388322
vt 0.625000 0.500000
vt 0.875000 0.500000
vt 0.875000 0.750000
vt 0.625000 0.750000
vt 0.375000 0.750000
vt 0.625000 1.000000
vt 0.375000 1.000000
vt 0.375000 0.000000
vt 0.625000 0.000000
vt 0.625000 0.250000
vt 0.375000 0.250000
vt 0.125000 0.500000
vt 0.375000 0.500000
vt 0.125000 0.750000
vn -0.3895 0.9148 0.1070
vn 0.1041 -0.0125 0.9945
vn -0.9995 0.0038 0.0303
vn 0.1352 -0.9815 0.1352
vn 0.9955 -0.0113 0.0937
vn -0.0011 -0.0001 -1.0000
usemtl Material
s off
f 1/1/1 5/2/1 7/3/1 3/4/1
f 4/5/2 3/4/2 7/6/2 8/7/2
f 8/8/3 7/9/3 5/10/3 6/11/3
f 6/12/4 2/13/4 4/5/4 8/14/4
f 2/13/5 1/1/5 3/4/5 4/5/5
f 6/11/6 5/10/6 1/1/6 2/13/6
